REM DIRINDEX 1\2\4\18,1\2\4\19,1\2\5\20,1\2\5\21,1\2\6\22,1\2\6\23,1\2\7\24,1\2\7\25,1\2\8\26,1\2\8\27,1\2\9\28,1\2\9\29,1\2\10\30,1\3\11\31,1\3\11\32,1\3\11\33,1\3\11\34,1\3\11\35,1\3\12\36,1\3\12\37,1\3\12\38,1\3\12\39,1\3\12\40,1\3\13\41,1\3\13\42,1\3\13\43,1\3\13\44,1\3\13\45,1\3\14\46,1\3\14\47,1\3\14\48,1\3\14\49,1\3\15\50,1\3\15\51,1\3\15\52,1\3\15\53,1\3\15\54,1\3\16\55,1\3\16\56,1\3\16\57,1\3\16\58,1\3\16\59,1\3\17\60,1\3\17\61
REM DIRNAME "folder01","folder02","folder03","folder04","folder05","folder06","folder07","folder08","folder09","folder10","folder11","folder12","folder13","folder14","folder15","folder16","folder17","folder18","folder19","folder20","folder21","folder22","folder23","folder24","folder25","folder26","folder27","folder28","folder29","folder30","folder31","folder32","folder33","folder34","folder35","folder36","folder37","folder38","folder39","folder40","folder41","folder42","folder43","folder44","folder45","folder46","folder47","folder48","folder49","folder50","folder51","folder52","folder53","folder54","folder55","folder56","folder57","folder58","folder59","folder60","folder61"
TITLE ""
FILE "TOEIC LR Kinnojyukugo_09.mp3" MP3
  TRACK 01 AUDIO
    TITLE "0:"
    INDEX 01 00:00:00
  TRACK 02 AUDIO
    TITLE "55:cjc160_4511"
    INDEX 01 00:00:12
  TRACK 03 AUDIO
    TITLE "0:"
    INDEX 01 00:01:35
  TRACK 04 AUDIO
    TITLE "56:cjc160_4512"
    INDEX 01 00:01:72
  TRACK 05 AUDIO
    TITLE "0:"
    INDEX 01 00:03:34
  TRACK 06 AUDIO
    TITLE "57:cjc160_4513"
    INDEX 01 00:04:02
  TRACK 07 AUDIO
    TITLE "0:"
    INDEX 01 00:05:66
  TRACK 08 AUDIO
    TITLE "58:cjc160_4514"
    INDEX 01 00:06:32
  TRACK 09 AUDIO
    TITLE "0:"
    INDEX 01 00:08:39
  TRACK 10 AUDIO
    TITLE "59:cjc160_4515"
    INDEX 01 00:08:65
  TRACK 11 AUDIO
    TITLE "0:"
    INDEX 01 00:10:73
  TRACK 12 AUDIO
    TITLE "55:cjc160_4516"
    INDEX 01 00:11:73
  TRACK 13 AUDIO
    TITLE "0:"
    INDEX 01 00:13:11
  TRACK 14 AUDIO
    TITLE "56:cjc160_4517"
    INDEX 01 00:13:50
  TRACK 15 AUDIO
    TITLE "0:"
    INDEX 01 00:15:26
  TRACK 16 AUDIO
    TITLE "57:cjc160_4518"
    INDEX 01 00:15:65
  TRACK 17 AUDIO
    TITLE "0:"
    INDEX 01 00:18:34
  TRACK 18 AUDIO
    TITLE "58:cjc160_4519"
    INDEX 01 00:18:73
  TRACK 19 AUDIO
    TITLE "0:"
    INDEX 01 00:21:32
  TRACK 20 AUDIO
    TITLE "59:cjc160_4520"
    INDEX 01 00:21:59
  TRACK 21 AUDIO
    TITLE "0:"
    INDEX 01 00:24:21
  TRACK 22 AUDIO
    TITLE "55:cjc160_4521"
    INDEX 01 00:25:22
  TRACK 23 AUDIO
    TITLE "0:"
    INDEX 01 00:26:45
  TRACK 24 AUDIO
    TITLE "56:cjc160_4522"
    INDEX 01 00:27:07
  TRACK 25 AUDIO
    TITLE "0:"
    INDEX 01 00:28:14
  TRACK 26 AUDIO
    TITLE "57:cjc160_4523"
    INDEX 01 00:28:56
  TRACK 27 AUDIO
    TITLE "0:"
    INDEX 01 00:31:01
  TRACK 28 AUDIO
    TITLE "58:cjc160_4524"
    INDEX 01 00:31:40
  TRACK 29 AUDIO
    TITLE "0:"
    INDEX 01 00:33:67
  TRACK 30 AUDIO
    TITLE "59:cjc160_4525"
    INDEX 01 00:34:17
  TRACK 31 AUDIO
    TITLE "0:"
    INDEX 01 00:36:43
  TRACK 32 AUDIO
    TITLE "55:cjc160_4526"
    INDEX 01 00:37:45
  TRACK 33 AUDIO
    TITLE "0:"
    INDEX 01 00:38:42
  TRACK 34 AUDIO
    TITLE "56:cjc160_4527"
    INDEX 01 00:39:03
  TRACK 35 AUDIO
    TITLE "0:"
    INDEX 01 00:40:14
  TRACK 36 AUDIO
    TITLE "57:cjc160_4528"
    INDEX 01 00:40:55
  TRACK 37 AUDIO
    TITLE "0:"
    INDEX 01 00:43:28
  TRACK 38 AUDIO
    TITLE "58:cjc160_4529"
    INDEX 01 00:43:65
  TRACK 39 AUDIO
    TITLE "0:"
    INDEX 01 00:46:01
  TRACK 40 AUDIO
    TITLE "59:cjc160_4530"
    INDEX 01 00:46:26
  TRACK 41 AUDIO
    TITLE "0:"
    INDEX 01 00:48:39
  TRACK 42 AUDIO
    TITLE "55:cjc160_4531"
    INDEX 01 00:49:40
  TRACK 43 AUDIO
    TITLE "0:"
    INDEX 01 00:50:34
  TRACK 44 AUDIO
    TITLE "56:cjc160_4532"
    INDEX 01 00:51:00
  TRACK 45 AUDIO
    TITLE "0:"
    INDEX 01 00:53:14
  TRACK 46 AUDIO
    TITLE "57:cjc160_4533"
    INDEX 01 00:53:59
  TRACK 47 AUDIO
    TITLE "0:"
    INDEX 01 00:55:74
  TRACK 48 AUDIO
    TITLE "58:cjc160_4534"
    INDEX 01 00:56:36
  TRACK 49 AUDIO
    TITLE "0:"
    INDEX 01 00:58:67
  TRACK 50 AUDIO
    TITLE "59:cjc160_4535"
    INDEX 01 00:59:17
  TRACK 51 AUDIO
    TITLE "0:"
    INDEX 01 01:01:45
  TRACK 52 AUDIO
    TITLE "55:cjc160_4536"
    INDEX 01 01:02:49
  TRACK 53 AUDIO
    TITLE "0:"
    INDEX 01 01:03:60
  TRACK 54 AUDIO
    TITLE "56:cjc160_4537"
    INDEX 01 01:04:22
  TRACK 55 AUDIO
    TITLE "0:"
    INDEX 01 01:07:03
  TRACK 56 AUDIO
    TITLE "57:cjc160_4538"
    INDEX 01 01:07:42
  TRACK 57 AUDIO
    TITLE "0:"
    INDEX 01 01:10:25
  TRACK 58 AUDIO
    TITLE "58:cjc160_4539"
    INDEX 01 01:10:64
  TRACK 59 AUDIO
    TITLE "0:"
    INDEX 01 01:14:18
  TRACK 60 AUDIO
    TITLE "59:cjc160_4540"
    INDEX 01 01:14:42
  TRACK 61 AUDIO
    TITLE "0:"
    INDEX 01 01:17:74
  TRACK 62 AUDIO
    TITLE "55:cjc160_4541"
    INDEX 01 01:19:00
  TRACK 63 AUDIO
    TITLE "0:"
    INDEX 01 01:20:27
  TRACK 64 AUDIO
    TITLE "56:cjc160_4542"
    INDEX 01 01:20:68
  TRACK 65 AUDIO
    TITLE "0:"
    INDEX 01 01:22:00
  TRACK 66 AUDIO
    TITLE "57:cjc160_4543"
    INDEX 01 01:22:36
  TRACK 67 AUDIO
    TITLE "0:"
    INDEX 01 01:25:01
  TRACK 68 AUDIO
    TITLE "58:cjc160_4544"
    INDEX 01 01:25:34
  TRACK 69 AUDIO
    TITLE "0:"
    INDEX 01 01:28:23
  TRACK 70 AUDIO
    TITLE "59:cjc160_4545"
    INDEX 01 01:28:44
  TRACK 71 AUDIO
    TITLE "0:"
    INDEX 01 01:31:31
  TRACK 72 AUDIO
    TITLE "55:cjc160_4546"
    INDEX 01 01:32:32
  TRACK 73 AUDIO
    TITLE "0:"
    INDEX 01 01:33:35
  TRACK 74 AUDIO
    TITLE "56:cjc160_4547"
    INDEX 01 01:33:73
  TRACK 75 AUDIO
    TITLE "0:"
    INDEX 01 01:35:56
  TRACK 76 AUDIO
    TITLE "57:cjc160_4548"
    INDEX 01 01:36:16
  TRACK 77 AUDIO
    TITLE "0:"
    INDEX 01 01:38:52
  TRACK 78 AUDIO
    TITLE "58:cjc160_4549"
    INDEX 01 01:39:15
  TRACK 79 AUDIO
    TITLE "0:"
    INDEX 01 01:41:51
  TRACK 80 AUDIO
    TITLE "59:cjc160_4550"
    INDEX 01 01:42:03
  TRACK 81 AUDIO
    TITLE "0:"
    INDEX 01 01:44:37
  TRACK 82 AUDIO
    TITLE "55:cjc160_4551"
    INDEX 01 01:45:39
  TRACK 83 AUDIO
    TITLE "0:"
    INDEX 01 01:46:38
  TRACK 84 AUDIO
    TITLE "56:cjc160_4552"
    INDEX 01 01:47:02
  TRACK 85 AUDIO
    TITLE "0:"
    INDEX 01 01:48:08
  TRACK 86 AUDIO
    TITLE "57:cjc160_4553"
    INDEX 01 01:48:43
  TRACK 87 AUDIO
    TITLE "0:"
    INDEX 01 01:51:02
  TRACK 88 AUDIO
    TITLE "58:cjc160_4554"
    INDEX 01 01:51:41
  TRACK 89 AUDIO
    TITLE "0:"
    INDEX 01 01:53:54
  TRACK 90 AUDIO
    TITLE "59:cjc160_4555"
    INDEX 01 01:54:06
  TRACK 91 AUDIO
    TITLE "0:"
    INDEX 01 01:56:19
  TRACK 92 AUDIO
    TITLE "55:cjc160_4556"
    INDEX 01 01:57:20
  TRACK 93 AUDIO
    TITLE "0:"
    INDEX 01 01:58:26
  TRACK 94 AUDIO
    TITLE "56:cjc160_4557"
    INDEX 01 01:58:65
  TRACK 95 AUDIO
    TITLE "0:"
    INDEX 01 01:59:64
  TRACK 96 AUDIO
    TITLE "57:cjc160_4558"
    INDEX 01 02:00:28
  TRACK 97 AUDIO
    TITLE "0:"
    INDEX 01 02:03:09
  TRACK 98 AUDIO
    TITLE "58:cjc160_4559"
    INDEX 01 02:03:48
  TRACK 99 AUDIO
    TITLE "0:"
    INDEX 01 02:06:23
  TRACK 100 AUDIO
    TITLE "59:cjc160_4560"
    INDEX 01 02:06:49
  TRACK 101 AUDIO
    TITLE "0:"
    INDEX 01 02:09:23
  TRACK 102 AUDIO
    TITLE "55:cjc160_4561"
    INDEX 01 02:10:23
  TRACK 103 AUDIO
    TITLE "0:"
    INDEX 01 02:11:18
  TRACK 104 AUDIO
    TITLE "56:cjc160_4562"
    INDEX 01 02:11:58
  TRACK 105 AUDIO
    TITLE "0:"
    INDEX 01 02:14:52
  TRACK 106 AUDIO
    TITLE "57:cjc160_4563"
    INDEX 01 02:15:14
  TRACK 107 AUDIO
    TITLE "0:"
    INDEX 01 02:18:34
  TRACK 108 AUDIO
    TITLE "58:cjc160_4564"
    INDEX 01 02:18:73
  TRACK 109 AUDIO
    TITLE "0:"
    INDEX 01 02:22:07
  TRACK 110 AUDIO
    TITLE "59:cjc160_4565"
    INDEX 01 02:22:32
  TRACK 111 AUDIO
    TITLE "0:"
    INDEX 01 02:25:42
